<?xml version="1.0" encoding="UTF-8" standalone="no"?>
<!DOCTYPE svg PUBLIC "-//W3C//DTD SVG 1.1//EN" "http://www.w3.org/Graphics/SVG/1.1/DTD/svg11.dtd">
<svg version="1.1" xmlns="http://www.w3.org/2000/svg" xmlns:xlink="http://www.w3.org/1999/xlink" preserveAspectRatio="xMidYMid meet" viewBox="0 0 640 640" width="640" height="640"><defs><path d="M152.5 173.87L153.09 173.94L153.68 174.05L154.27 174.19L154.85 174.37L155.42 174.58L155.99 174.82L156.55 175.11L157.1 175.43L157.65 175.78L158.17 176.17L158.69 176.61L182.58 197.83L212.97 224.83L213.3 225.14L213.61 225.46L213.89 225.79L214.16 226.13L214.4 226.49L214.63 226.85L214.83 227.22L215.01 227.59L215.17 227.98L215.31 228.36L215.43 228.76L215.53 229.15L215.61 229.55L215.66 229.95L215.7 230.36L215.72 230.76L215.72 231.16L215.7 231.57L215.66 231.97L215.6 232.37L215.52 232.76L215.42 233.15L215.3 233.54L215.17 233.92L215.01 234.29L214.84 234.66L214.65 235.02L214.44 235.37L214.22 235.71L213.97 236.03L213.71 236.35L213.43 236.66L213.13 236.95L212.81 237.23L212.48 237.49L212.13 237.74L211.77 237.97L211.38 238.19L211.14 238.31L192.43 221.69L168.54 200.47L168.02 200.04L167.5 199.64L166.96 199.29L166.4 198.97L165.84 198.69L165.27 198.44L164.7 198.23L164.12 198.06L163.53 197.91L162.94 197.81L162.35 197.73L161.76 197.69L161.17 197.68L160.58 197.71L160 197.76L159.42 197.85L158.84 197.96L158.27 198.11L157.72 198.28L157.17 198.48L156.63 198.72L156.11 198.97L155.6 199.26L155.1 199.57L154.62 199.91L154.16 200.28L153.72 200.67L153.3 201.08L152.9 201.52L152.52 201.98L152.17 202.46L151.84 202.97L151.54 203.5L151.27 204.05L151.03 204.62L150.82 205.21L150.64 205.82L150.49 206.45L150.38 207.1L150.31 207.77L147.66 239.62L145.59 264.58L145.55 264.59L145.13 264.75L144.71 264.88L144.29 264.99L143.87 265.07L143.45 265.13L143.03 265.17L142.61 265.19L142.2 265.18L141.79 265.15L141.38 265.1L140.98 265.03L140.59 264.95L140.2 264.84L139.81 264.71L139.44 264.57L139.07 264.4L138.72 264.22L138.37 264.03L138.03 263.81L137.71 263.58L137.39 263.34L137.09 263.08L136.8 262.81L136.52 262.52L136.26 262.21L136.01 261.9L135.78 261.57L135.56 261.23L135.36 260.88L135.18 260.52L135.01 260.14L134.86 259.76L134.74 259.37L134.63 258.96L134.54 258.55L134.48 258.13L134.43 257.7L134.41 257.27L134.41 256.83L134.44 256.38L137.81 215.75L140.46 183.9L140.53 183.24L140.64 182.59L140.79 181.96L140.97 181.35L141.18 180.76L141.42 180.18L141.69 179.64L141.99 179.11L142.32 178.6L142.67 178.12L143.05 177.65L143.45 177.22L143.87 176.8L144.31 176.41L144.77 176.05L145.25 175.71L145.75 175.4L146.26 175.11L146.78 174.85L147.32 174.62L147.87 174.42L148.42 174.24L148.99 174.1L149.56 173.98L150.14 173.9L150.73 173.84L151.32 173.82L151.91 173.83L152.5 173.87Z" id="g1n0mFNORr"></path><path d="M73.91 350.74C94.64 338.36 114.81 341.34 134.41 359.71" id="buFAwz2LR"></path><path d="M73.91 371.17C92.6 355.88 112.99 355.88 135.07 371.17" id="iaESteuWK"></path><path d="M304.5 357.52C312.6 367.1 322.36 367.2 333.76 357.83" id="chLIEbEKb"></path><path d="M420.72 351.48C420.72 368.74 436.14 382.74 455.13 382.74C474.13 382.74 489.55 368.74 489.55 351.48C489.55 334.23 474.13 320.22 455.13 320.22C436.14 320.22 420.72 334.23 420.72 351.48Z" id="aHC3AzZ5K"></path><path d="M514.47 173.9L515.05 173.98L515.62 174.1L516.19 174.24L516.75 174.42L517.3 174.62L517.83 174.85L518.36 175.11L518.87 175.4L519.36 175.71L519.84 176.05L520.3 176.41L520.74 176.8L521.17 177.22L521.57 177.65L521.94 178.12L522.29 178.6L522.62 179.11L522.92 179.64L523.19 180.18L523.43 180.76L523.65 181.35L523.83 181.96L523.97 182.59L524.08 183.24L524.16 183.9L526.8 215.75L530.18 256.38L530.2 256.83L530.2 257.27L530.18 257.7L530.14 258.13L530.07 258.55L529.98 258.96L529.88 259.37L529.75 259.76L529.6 260.14L529.44 260.52L529.25 260.88L529.05 261.23L528.84 261.57L528.6 261.9L528.36 262.21L528.09 262.52L527.82 262.81L527.53 263.08L527.22 263.34L526.91 263.58L526.58 263.81L526.24 264.03L525.9 264.22L525.54 264.4L525.17 264.57L524.8 264.71L524.42 264.84L524.03 264.95L523.63 265.03L523.23 265.1L522.83 265.15L522.42 265.18L522 265.19L521.59 265.17L521.17 265.13L520.75 265.07L520.32 264.99L519.9 264.88L519.48 264.75L519.06 264.59L519.02 264.58L516.95 239.62L514.31 207.77L514.23 207.1L514.12 206.45L513.97 205.82L513.8 205.21L513.58 204.62L513.34 204.05L513.07 203.5L512.77 202.97L512.44 202.46L512.09 201.98L511.71 201.52L511.32 201.08L510.89 200.67L510.45 200.28L509.99 199.91L509.51 199.57L509.02 199.26L508.51 198.97L507.98 198.72L507.44 198.48L506.9 198.28L506.34 198.11L505.77 197.96L505.2 197.85L504.62 197.76L504.03 197.71L503.44 197.68L502.85 197.69L502.26 197.73L501.67 197.81L501.08 197.91L500.5 198.06L499.91 198.23L499.34 198.44L498.77 198.69L498.21 198.97L497.66 199.29L497.12 199.64L496.59 200.04L496.07 200.47L472.18 221.69L453.48 238.31L453.23 238.19L452.85 237.97L452.48 237.74L452.13 237.49L451.8 237.23L451.48 236.95L451.19 236.66L450.9 236.35L450.64 236.03L450.4 235.71L450.17 235.37L449.96 235.02L449.77 234.66L449.6 234.29L449.44 233.92L449.31 233.54L449.19 233.15L449.09 232.76L449.02 232.37L448.96 231.97L448.92 231.57L448.89 231.16L448.89 230.76L448.91 230.36L448.95 229.95L449.01 229.55L449.09 229.15L449.18 228.76L449.3 228.36L449.44 227.98L449.6 227.59L449.78 227.22L449.99 226.85L450.21 226.49L450.45 226.13L450.72 225.79L451.01 225.46L451.32 225.14L451.65 224.83L482.03 197.83L505.93 176.61L506.44 176.17L506.97 175.78L507.51 175.43L508.06 175.11L508.62 174.82L509.19 174.58L509.76 174.37L510.35 174.19L510.93 174.05L511.52 173.94L512.11 173.87L512.7 173.83L513.29 173.82L513.88 173.84L514.47 173.9Z" id="cFh68a8FM"></path><path d="M590.7 350.74C569.97 338.36 549.81 341.34 530.2 359.71" id="aISnsqbcn"></path><path d="M590.7 371.17C572.01 355.88 551.63 355.88 529.54 371.17" id="e3pitZhj9B"></path><path d="M360.11 357.52C352.01 367.1 342.26 367.2 330.85 357.83" id="a14g28UhC"></path><path d="M334.55 339L335.78 339.45L336.95 340.04L338.02 340.77L338.54 341.23L339.38 342.07L339.84 342.59L340.57 343.66L341.17 344.83L341.61 346.07L341.89 347.37L341.95 348.21L333.59 356.57L333.37 356.76L333.13 356.92L332.88 357.04L332.61 357.13L332.34 357.18L332.07 357.2L331.79 357.18L331.52 357.13L331.26 357.04L331.01 356.92L330.77 356.76L330.55 356.57L321.99 348.02L322.04 347.18L322.3 345.88L322.71 344.65L323.28 343.5L323.99 342.44L324.44 341.93L325.27 341.1L325.78 340.65L326.84 339.94L327.99 339.37L329.22 338.95L330.52 338.7L331.88 338.62L333.24 338.73L334.55 339Z" id="a17I9HtNrM"></path><clipPath id="clipb9ufQLg5tE"><use xlink:href="#a17I9HtNrM" opacity="1"></use></clipPath><path d="M479.11 355.92C479.11 359.08 476.04 361.65 472.26 361.65C468.48 361.65 465.41 359.08 465.41 355.92C465.41 352.75 468.48 350.18 472.26 350.18C476.04 350.18 479.11 352.75 479.11 355.92Z" id="g2JhArPEiG"></path><path d="M475.68 337.4C475.68 343.2 471.08 347.91 465.41 347.91C459.74 347.91 455.13 343.2 455.13 337.4C455.13 331.61 459.74 326.9 465.41 326.9C471.08 326.9 475.68 331.61 475.68 337.4Z" id="aAD0KWnIB"></path><path d="M175.07 351.48C175.07 368.74 190.49 382.74 209.48 382.74C228.47 382.74 243.89 368.74 243.89 351.48C243.89 334.23 228.47 320.22 209.48 320.22C190.49 320.22 175.07 334.23 175.07 351.48Z" id="g9VI0rdDE"></path><path d="M233.45 355.92C233.45 359.08 230.38 361.65 226.6 361.65C222.82 361.65 219.75 359.08 219.75 355.92C219.75 352.75 222.82 350.18 226.6 350.18C230.38 350.18 233.45 352.75 233.45 355.92Z" id="a5Lr0mJYPV"></path><path d="M230.02 337.4C230.02 343.2 225.42 347.91 219.75 347.91C214.08 347.91 209.48 343.2 209.48 337.4C209.48 331.61 214.08 326.9 219.75 326.9C225.42 326.9 230.02 331.61 230.02 337.4Z" id="c2Cir6zKal"></path><path d="M-574.43 -223.22C-555.94 -234.26 -537.96 -231.6 -520.47 -215.22" id="c2brS4dBsB"></path><path d="M-574.43 -204.99C-557.76 -218.63 -539.58 -218.63 -519.88 -204.99" id="a2s23u1Qy1"></path></defs><g><g><g><use xlink:href="#g1n0mFNORr" opacity="1" fill="#131716" fill-opacity="1"></use></g><g><g><use xlink:href="#buFAwz2LR" opacity="1" fill-opacity="0" stroke="#000000" stroke-width="3.5" stroke-opacity="1"></use></g></g><g><g><use xlink:href="#iaESteuWK" opacity="1" fill-opacity="0" stroke="#000000" stroke-width="3.5" stroke-opacity="1"></use></g></g><g><g><use xlink:href="#chLIEbEKb" opacity="1" fill-opacity="0" stroke="#000000" stroke-width="7" stroke-opacity="1"></use></g></g><g><use xlink:href="#aHC3AzZ5K" opacity="1" fill="#000000" fill-opacity="1"></use></g><g><use xlink:href="#cFh68a8FM" opacity="1" fill="#131716" fill-opacity="1"></use></g><g><g><use xlink:href="#aISnsqbcn" opacity="1" fill-opacity="0" stroke="#000000" stroke-width="3.5" stroke-opacity="1"></use></g></g><g><g><use xlink:href="#e3pitZhj9B" opacity="1" fill-opacity="0" stroke="#000000" stroke-width="3.5" stroke-opacity="1"></use></g></g><g><g><use xlink:href="#a14g28UhC" opacity="1" fill-opacity="0" stroke="#000000" stroke-width="7" stroke-opacity="1"></use></g></g><g><use xlink:href="#a17I9HtNrM" opacity="1" fill="#131517" fill-opacity="1"></use><g clip-path="url(#clipb9ufQLg5tE)"><use xlink:href="#a17I9HtNrM" opacity="1" fill-opacity="0" stroke="#000000" stroke-width="14" stroke-opacity="1"></use></g></g><g><use xlink:href="#g2JhArPEiG" opacity="1" fill="#ffffff" fill-opacity="1"></use></g><g><use xlink:href="#aAD0KWnIB" opacity="1" fill="#ffffff" fill-opacity="1"></use></g><g><use xlink:href="#g9VI0rdDE" opacity="1" fill="#000000" fill-opacity="1"></use></g><g><use xlink:href="#a5Lr0mJYPV" opacity="1" fill="#ffffff" fill-opacity="1"></use></g><g><use xlink:href="#c2Cir6zKal" opacity="1" fill="#ffffff" fill-opacity="1"></use></g><g><g><use xlink:href="#c2brS4dBsB" opacity="1" fill-opacity="0" stroke="#000000" stroke-width="3.5" stroke-opacity="1"></use></g></g><g><g><use xlink:href="#a2s23u1Qy1" opacity="1" fill-opacity="0" stroke="#000000" stroke-width="3.5" stroke-opacity="1"></use></g></g></g></g></svg>